<?xml version="1.0" encoding="utf-8"?>
<!-- Generator: Adobe Illustrator 17.0.0, SVG Export Plug-In . SVG Version: 6.00 Build 0)  -->
<!DOCTYPE svg PUBLIC "-//W3C//DTD SVG 1.1//EN" "http://www.w3.org/Graphics/SVG/1.1/DTD/svg11.dtd">
<svg version="1.1" id="Capa_1" xmlns="http://www.w3.org/2000/svg" xmlns:xlink="http://www.w3.org/1999/xlink" x="0px" y="0px"
	 width="512px" height="512px" viewBox="0 0 512 512" enable-background="new 0 0 512 512" xml:space="preserve">
<g>
	<path fill="#333333" d="M502.51,187.11c-0.009-0.044,0.009-0.097-0.009-0.141c-0.018-0.071-0.071-0.115-0.088-0.177
		c-5.447-19.368-13.224-37.747-22.828-54.978c1.571,1.448,3.628,2.375,5.932,2.375c4.873,0,8.828-3.946,8.828-8.828v-8.625
		c0-4.882-3.955-8.828-8.828-8.828s-8.828,3.946-8.828,8.828v8.625c0,0.53,0.212,0.98,0.3,1.483
		c-1.333-2.269-2.684-4.529-4.087-6.753c-0.221-0.344-0.556-0.547-0.812-0.847c-5.482-8.633-11.458-16.914-17.902-24.806
		c-0.221-0.362-0.309-0.768-0.591-1.103c-1.757-2.127-3.54-4.228-5.358-6.294c-0.168-0.185-0.388-0.265-0.565-0.433
		c-7-7.91-14.468-15.386-22.387-22.378c-0.159-0.159-0.221-0.371-0.397-0.521c-2.066-1.81-4.158-3.593-6.276-5.332
		c-0.318-0.265-0.706-0.353-1.05-0.565c-7.91-6.462-16.207-12.438-24.858-17.929c-0.309-0.256-0.512-0.591-0.856-0.812
		c-2.225-1.395-4.484-2.763-6.753-4.087c0.556,0.106,1.068,0.327,1.66,0.327h8.625c4.873,0,8.828-3.946,8.828-8.828
		s-3.955-8.828-8.828-8.828h-8.625c-4.873,0-8.828,3.946-8.828,8.828c0,2.348,0.953,4.449,2.445,6.029
		c-17.284-9.657-35.734-17.47-55.172-22.934c-0.053-0.009-0.088-0.053-0.15-0.071c-0.035-0.009-0.079,0-0.115,0
		C302.98,3.354,279.879,0,256,0s-46.98,3.354-68.926,9.507c-0.044,0.009-0.079,0-0.115,0c-0.053,0.009-0.088,0.053-0.15,0.071
		c-19.377,5.447-37.764,13.233-54.996,22.837c1.448-1.571,2.375-3.628,2.375-5.932c0-4.882-3.955-8.828-8.828-8.828h-8.625
		c-4.873,0-8.828,3.946-8.828,8.828s3.955,8.828,8.828,8.828h8.625c0.53,0,0.989-0.212,1.492-0.3
		c-2.278,1.333-4.529,2.692-6.762,4.096c-0.344,0.221-0.547,0.556-0.847,0.812c-8.642,5.491-16.922,11.467-24.823,17.92
		c-0.353,0.212-0.75,0.3-1.077,0.574c-2.127,1.748-4.228,3.531-6.294,5.358c-0.177,0.15-0.247,0.362-0.406,0.521
		c-7.918,7-15.404,14.486-22.404,22.404c-0.159,0.159-0.371,0.23-0.521,0.397c-1.818,2.066-3.602,4.167-5.358,6.294
		c-0.274,0.327-0.362,0.733-0.574,1.086c-6.444,7.892-12.412,16.172-17.894,24.806c-0.265,0.309-0.609,0.512-0.83,0.865
		c-1.395,2.225-2.754,4.476-4.087,6.753c0.115-0.547,0.335-1.059,0.335-1.651v-8.625c0-4.882-3.955-8.828-8.828-8.828
		s-8.828,3.946-8.828,8.828v8.625c0,4.882,3.955,8.828,8.828,8.828c2.348,0,4.449-0.945,6.029-2.445
		c-9.649,17.276-17.461,35.716-22.925,55.155c-0.018,0.071-0.071,0.115-0.088,0.177c-0.009,0.044,0.009,0.097-0.009,0.141
		C3.354,209.046,0,232.13,0,256s3.354,46.954,9.49,68.891c0.009,0.044-0.009,0.097,0.009,0.141c0.018,0.079,0.071,0.141,0.097,0.221
		c5.447,19.35,13.224,37.72,22.819,54.934c-1.571-1.448-3.628-2.375-5.932-2.375c-4.873,0-8.828,3.946-8.828,8.828v8.625
		c0,4.882,3.955,8.828,8.828,8.828s8.828-3.946,8.828-8.828v-8.625c0-0.521-0.212-0.971-0.3-1.474
		c1.324,2.26,2.684,4.52,4.078,6.735c0.335,0.538,0.759,0.989,1.183,1.43c5.385,8.43,11.238,16.516,17.54,24.232
		c0.221,0.362,0.309,0.768,0.591,1.103c1.757,2.127,3.54,4.228,5.358,6.294c0.15,0.168,0.362,0.23,0.521,0.38
		c7.009,7.927,14.504,15.422,22.431,22.422c0.159,0.159,0.23,0.371,0.397,0.521c2.066,1.81,4.158,3.593,6.276,5.332
		c0.362,0.3,0.786,0.441,1.183,0.671c7.865,6.418,16.119,12.367,24.726,17.823c0.309,0.256,0.512,0.591,0.856,0.812
		c2.225,1.395,4.484,2.763,6.753,4.087c-0.556-0.097-1.068-0.318-1.66-0.318h-8.625c-4.873,0-8.828,3.946-8.828,8.828
		c0,4.882,3.955,8.828,8.828,8.828h8.625c4.873,0,8.828-3.946,8.828-8.828c0-2.348-0.953-4.449-2.445-6.029
		c17.284,9.657,35.725,17.47,55.172,22.934c0.053,0.009,0.088,0.053,0.15,0.071c0.062,0.018,0.115,0.009,0.177,0.018
		C209.064,508.646,232.139,512,256,512s46.936-3.354,68.864-9.49c0.062-0.009,0.115-0.009,0.177-0.018
		c0.053-0.009,0.088-0.053,0.15-0.071c19.377-5.447,37.764-13.233,54.996-22.837c-1.448,1.571-2.375,3.628-2.375,5.932
		c0,4.882,3.955,8.828,8.828,8.828h8.625c4.873,0,8.828-3.946,8.828-8.828s-3.955-8.828-8.828-8.828h-8.625
		c-0.53,0-0.989,0.212-1.492,0.3c2.278-1.333,4.529-2.692,6.762-4.096c0.344-0.221,0.547-0.556,0.847-0.812
		c8.589-5.455,16.834-11.396,24.691-17.814c0.397-0.238,0.839-0.38,1.209-0.68c2.127-1.748,4.228-3.531,6.294-5.358
		c0.177-0.15,0.247-0.371,0.406-0.53c7.936-7.018,15.431-14.513,22.44-22.449c0.141-0.141,0.344-0.194,0.477-0.353
		c1.818-2.066,3.602-4.167,5.358-6.294c0.274-0.327,0.362-0.733,0.574-1.086c6.303-7.724,12.156-15.81,17.532-24.241
		c0.433-0.441,0.847-0.9,1.192-1.439c1.395-2.225,2.754-4.476,4.087-6.753c-0.106,0.574-0.327,1.077-0.327,1.668v8.625
		c0,4.882,3.955,8.828,8.828,8.828s8.828-3.946,8.828-8.828v-8.625c0-4.882-3.955-8.828-8.828-8.828
		c-2.348,0-4.449,0.945-6.029,2.445c9.649-17.267,17.452-35.69,22.916-55.111c0.026-0.079,0.079-0.141,0.097-0.221
		c0.009-0.044-0.009-0.097,0.009-0.141C508.646,302.954,512,279.87,512,256S508.646,209.046,502.51,187.11z M256,17.655
		c19.368,0,38.179,2.383,56.214,6.762L287.7,122.492c-10.196-2.428-20.771-3.849-31.7-3.849s-21.504,1.421-31.7,3.84l-24.514-98.074
		C217.821,20.039,236.632,17.655,256,17.655z M17.655,256c0-19.368,2.375-38.179,6.762-56.214l98.066,24.514
		c-2.419,10.196-3.84,20.771-3.84,31.7s1.421,21.504,3.84,31.7l-98.066,24.514C20.03,294.179,17.655,275.368,17.655,256z
		 M256,494.345c-19.368,0-38.179-2.383-56.214-6.762l24.514-98.074c10.196,2.419,20.771,3.84,31.7,3.84
		c10.929,0,21.504-1.421,31.7-3.84l24.514,98.074C294.179,491.961,275.368,494.345,256,494.345z M256,375.702
		c-66.004,0-119.702-53.698-119.702-119.702S189.996,136.298,256,136.298S375.702,189.996,375.702,256S322.004,375.702,256,375.702z
		 M487.583,312.214L389.517,287.7c2.419-10.196,3.84-20.771,3.84-31.7c0-10.929-1.421-21.504-3.84-31.7l98.066-24.514
		c4.387,18.035,6.762,36.846,6.762,56.214S491.97,294.179,487.583,312.214z"/>
	<path fill="#333333" d="M34.94,49.779c2.578,0,5.146-1.13,6.886-3.293c1.404-1.748,2.993-3.337,4.714-4.705
		c3.814-3.046,4.44-8.598,1.404-12.403c-3.046-3.822-8.598-4.449-12.412-1.412c-2.737,2.189-5.252,4.687-7.468,7.45
		c-3.054,3.796-2.454,9.357,1.351,12.412C31.038,49.134,32.989,49.779,34.94,49.779z"/>
	<path fill="#333333" d="M73.613,35.31h8.625c4.873,0,8.828-3.946,8.828-8.828s-3.955-8.828-8.828-8.828h-8.625
		c-4.873,0-8.828,3.946-8.828,8.828S68.74,35.31,73.613,35.31z"/>
	<path fill="#333333" d="M26.483,90.959c4.873,0,8.828-3.946,8.828-8.828v-8.633c0-4.882-3.955-8.828-8.828-8.828
		s-8.828,3.946-8.828,8.828v8.633C17.655,87.005,21.61,90.959,26.483,90.959z"/>
	<path fill="#333333" d="M429.868,35.31h8.625c4.873,0,8.828-3.946,8.828-8.828s-3.955-8.828-8.828-8.828h-8.625
		c-4.873,0-8.828,3.946-8.828,8.828S424.995,35.31,429.868,35.31z"/>
	<path fill="#333333" d="M470.228,46.53c1.748,2.189,4.317,3.328,6.912,3.328c1.933,0,3.866-0.627,5.5-1.924
		c3.814-3.046,4.44-8.598,1.404-12.403c-2.198-2.754-4.705-5.27-7.459-7.486c-3.796-3.037-9.357-2.436-12.412,1.359
		c-3.054,3.805-2.445,9.366,1.359,12.412C467.262,43.22,468.842,44.8,470.228,46.53z"/>
	<path fill="#333333" d="M476.69,73.613v8.633c0,4.882,3.955,8.828,8.828,8.828s8.828-3.946,8.828-8.828v-8.633
		c0-4.882-3.955-8.828-8.828-8.828S476.69,68.732,476.69,73.613z"/>
	<path fill="#333333" d="M485.517,421.041c-4.873,0-8.828,3.946-8.828,8.828v8.633c0,4.882,3.955,8.828,8.828,8.828
		s8.828-3.946,8.828-8.828v-8.633C494.345,424.995,490.39,421.041,485.517,421.041z"/>
	<path fill="#333333" d="M438.387,476.69h-8.625c-4.873,0-8.828,3.946-8.828,8.828c0,4.882,3.955,8.828,8.828,8.828h8.625
		c4.873,0,8.828-3.946,8.828-8.828C447.214,480.636,443.26,476.69,438.387,476.69z"/>
	<path fill="#333333" d="M470.184,465.514c-1.404,1.748-2.993,3.337-4.714,4.705c-3.814,3.046-4.44,8.598-1.404,12.403
		c1.748,2.189,4.317,3.328,6.912,3.328c1.933,0,3.866-0.627,5.5-1.924c2.745-2.189,5.261-4.687,7.477-7.451
		c3.054-3.805,2.454-9.366-1.351-12.412C478.799,461.127,473.238,461.736,470.184,465.514z"/>
	<path fill="#333333" d="M82.132,476.69h-8.625c-4.873,0-8.828,3.946-8.828,8.828c0,4.882,3.955,8.828,8.828,8.828h8.625
		c4.873,0,8.828-3.946,8.828-8.828C90.959,480.636,87.005,476.69,82.132,476.69z"/>
	<path fill="#333333" d="M35.31,438.387v-8.633c0-4.882-3.955-8.828-8.828-8.828s-8.828,3.946-8.828,8.828v8.633
		c0,4.882,3.955,8.828,8.828,8.828S35.31,443.268,35.31,438.387z"/>
	<path fill="#333333" d="M41.772,465.47c-3.046-3.822-8.598-4.431-12.403-1.404c-3.814,3.046-4.44,8.598-1.404,12.403
		c2.198,2.754,4.705,5.27,7.459,7.486c1.633,1.298,3.584,1.942,5.517,1.942c2.578,0,5.146-1.13,6.886-3.302
		c3.054-3.805,2.445-9.366-1.359-12.412C44.738,468.78,43.158,467.2,41.772,465.47z"/>
</g>
</svg>
