<?xml version="1.0" encoding="utf-8"?>
<!-- Generator: Adobe Illustrator 17.0.0, SVG Export Plug-In . SVG Version: 6.00 Build 0)  -->
<!DOCTYPE svg PUBLIC "-//W3C//DTD SVG 1.1//EN" "http://www.w3.org/Graphics/SVG/1.1/DTD/svg11.dtd">
<svg version="1.1" id="Capa_1" xmlns="http://www.w3.org/2000/svg" xmlns:xlink="http://www.w3.org/1999/xlink" x="0px" y="0px"
	 width="512px" height="512px" viewBox="0 0 512 512" enable-background="new 0 0 512 512" xml:space="preserve">
<g>
	<path fill="#333333" d="M302.874,204.8h17.067c4.719,0,8.533-3.814,8.533-8.533s-3.814-8.533-8.533-8.533h-17.067
		c-4.719,0-8.533,3.814-8.533,8.533S298.155,204.8,302.874,204.8z"/>
	<path fill="#333333" d="M273.024,264.533c-3.695-0.009-7.287-0.666-10.684-1.963c-4.369-1.664-9.327,0.529-11.017,4.932
		c-1.673,4.403,0.538,9.336,4.932,11.017c5.342,2.031,10.965,3.072,16.751,3.081h3.046c4.719,0,8.533-3.814,8.533-8.533
		s-3.814-8.533-8.533-8.533H273.024z"/>
	<path fill="#333333" d="M252.766,210.569c1.545,0,3.098-0.418,4.506-1.289c3.78-2.355,7.962-3.797,12.407-4.292
		c4.685-0.521,8.064-4.736,7.552-9.421c-0.512-4.685-4.702-8.03-9.421-7.552c-7.014,0.777-13.602,3.046-19.575,6.775
		c-4.002,2.492-5.214,7.757-2.722,11.759C247.134,209.143,249.916,210.569,252.766,210.569z"/>
	<path fill="#333333" d="M307.14,341.333c-0.734,0-1.459,0.017-2.185,0.051c-4.71,0.188-8.363,4.164-8.175,8.875
		c0.179,4.591,3.968,8.183,8.516,8.183c0.119,0,0.239,0,0.358-0.009l16.717-0.034c4.719,0,8.533-3.814,8.533-8.533
		c0-4.719-3.814-8.533-8.533-8.533H307.14z"/>
	<path fill="#333333" d="M371.14,204.8c4.719,0,8.533-3.814,8.533-8.533s-3.814-8.533-8.533-8.533h-17.067
		c-4.719,0-8.533,3.814-8.533,8.533s3.814,8.533,8.533,8.533H371.14z"/>
	<path fill="#333333" d="M407.706,341.333c-4.719,0-8.533,3.814-8.533,8.533c0,4.719,3.814,8.533,8.533,8.533h17.067
		c4.719,0,8.533-3.814,8.533-8.533c0-4.719-3.814-8.533-8.533-8.533H407.706z"/>
	<path fill="#333333" d="M438.195,273.067c0-4.719-3.814-8.533-8.533-8.533h-17.067c-4.719,0-8.533,3.814-8.533,8.533
		s3.814,8.533,8.533,8.533h17.067C434.372,281.6,438.195,277.786,438.195,273.067z"/>
	<path fill="#333333" d="M356.506,358.4h17.067c4.719,0,8.533-3.814,8.533-8.533c0-4.719-3.814-8.533-8.533-8.533h-17.067
		c-4.719,0-8.533,3.814-8.533,8.533C347.972,354.586,351.795,358.4,356.506,358.4z"/>
	<path fill="#333333" d="M386.995,273.067c0-4.719-3.814-8.533-8.533-8.533h-17.067c-4.719,0-8.533,3.814-8.533,8.533
		s3.814,8.533,8.533,8.533h17.067C383.172,281.6,386.995,277.786,386.995,273.067z"/>
	<path fill="#333333" d="M310.195,264.533c-4.719,0-8.533,3.814-8.533,8.533s3.814,8.533,8.533,8.533h17.067
		c4.719,0,8.533-3.814,8.533-8.533s-3.814-8.533-8.533-8.533H310.195z"/>
	<path fill="#333333" d="M205.346,494.933h-17.067c-4.719,0-8.533,3.814-8.533,8.533c0,4.719,3.814,8.533,8.533,8.533h17.067
		c4.719,0,8.533-3.814,8.533-8.533C213.879,498.748,210.057,494.933,205.346,494.933z"/>
	<path fill="#333333" d="M154.146,494.933h-17.067c-4.719,0-8.533,3.814-8.533,8.533c0,4.719,3.814,8.533,8.533,8.533h17.067
		c4.719,0,8.533-3.814,8.533-8.533C162.679,498.748,158.857,494.933,154.146,494.933z"/>
	<path fill="#333333" d="M448.887,465.212c-4.599-1.033-9.165,1.852-10.197,6.451c-0.981,4.352-2.884,8.354-5.658,11.878
		c-2.91,3.703-2.278,9.071,1.434,11.981c1.57,1.229,3.422,1.826,5.265,1.826c2.534,0,5.035-1.118,6.716-3.26
		c4.301-5.461,7.373-11.913,8.892-18.671C456.371,470.81,453.487,466.244,448.887,465.212z"/>
	<path fill="#333333" d="M439.731,449.869c1.843,0,3.712-0.597,5.265-1.826c3.712-2.918,4.343-8.286,1.434-11.981
		c-4.292-5.453-9.83-9.958-16.034-13.039c-4.241-2.108-9.344-0.375-11.443,3.84c-2.099,4.224-0.375,9.344,3.84,11.443
		c3.951,1.954,7.484,4.83,10.214,8.311C434.697,448.751,437.197,449.869,439.731,449.869z"/>
	<path fill="#333333" d="M401.621,426.667c0-4.719-3.814-8.533-8.533-8.533h-17.067c-4.719,0-8.533,3.814-8.533,8.533
		s3.814,8.533,8.533,8.533h17.067C397.798,435.2,401.621,431.386,401.621,426.667z"/>
	<path fill="#333333" d="M409.54,494.933h-16.469c-4.719,0-8.533,3.814-8.533,8.533c0,4.719,3.814,8.533,8.533,8.533l16.819-0.009
		l0.247-8.533v8.533c4.719,0,8.235-3.814,8.235-8.533C418.372,498.748,414.259,494.933,409.54,494.933z"/>
	<path fill="#333333" d="M507.102,304.06c-0.751-4.659-5.146-7.842-9.779-7.074c-4.659,0.742-7.825,5.129-7.074,9.779
		c0.239,1.519,0.375,3.063,0.358,4.71c0,2.867-0.41,5.7-1.212,8.431c-1.323,4.523,1.263,9.267,5.794,10.59
		c0.802,0.23,1.604,0.341,2.398,0.341c3.695,0,7.1-2.406,8.192-6.135c1.254-4.292,1.894-8.738,1.894-13.167
		C507.691,309.077,507.503,306.56,507.102,304.06z"/>
	<path fill="#333333" d="M239.181,254.763c4.471-1.476,6.912-6.298,5.444-10.778c-0.981-2.995-1.485-6.127-1.485-9.284
		c0.009-1.289,0.085-2.577,0.239-3.831c0.589-4.676-2.722-8.951-7.398-9.532c-4.821-0.538-8.951,2.739-9.532,7.398
		c-0.239,1.929-0.367,3.891-0.375,5.922c0,5.018,0.785,9.95,2.33,14.66c1.186,3.593,4.523,5.871,8.107,5.871
		C237.397,255.189,238.302,255.061,239.181,254.763z"/>
	<path fill="#333333" d="M484.233,270.831c-6.093-3.533-12.749-5.606-19.772-6.161c-4.685-0.341-8.806,3.132-9.173,7.842
		c-0.367,4.702,3.14,8.806,7.842,9.173c4.454,0.35,8.678,1.664,12.544,3.908c1.348,0.785,2.825,1.152,4.275,1.152
		c2.944,0,5.811-1.527,7.39-4.25C489.702,278.426,488.311,273.203,484.233,270.831z"/>
	<path fill="#333333" d="M472.277,339.021c-3.661,1.536-7.535,2.313-11.537,2.313h-1.835c-4.719,0-8.533,3.814-8.533,8.533
		c0,4.719,3.814,8.533,8.533,8.533h1.835c6.281,0,12.382-1.229,18.133-3.644c4.352-1.826,6.391-6.827,4.565-11.17
		C481.621,339.243,476.587,337.195,472.277,339.021z"/>
	<path fill="#333333" d="M277.803,382.626c0.845-4.386,2.62-8.439,5.282-12.058c2.79-3.789,1.98-9.131-1.818-11.93
		c-3.797-2.782-9.131-1.98-11.93,1.818c-4.173,5.683-6.972,12.058-8.303,18.961c-0.887,4.625,2.142,9.097,6.775,9.993
		c0.538,0.102,1.084,0.154,1.613,0.154C273.434,389.547,277.009,386.705,277.803,382.626z"/>
	<path fill="#333333" d="M291.174,431.736c3.243,0,6.332-1.852,7.765-4.983c1.954-4.292,0.077-9.353-4.207-11.307
		c-4.002-1.835-7.629-4.591-10.479-7.987c-3.038-3.61-8.414-4.079-12.023-1.041c-3.61,3.029-4.079,8.414-1.041,12.023
		c4.471,5.316,10.155,9.651,16.444,12.518C288.785,431.479,289.988,431.736,291.174,431.736z"/>
	<path fill="#333333" d="M256.546,494.933h-17.067c-4.719,0-8.533,3.814-8.533,8.533c0,4.719,3.814,8.533,8.533,8.533h17.067
		c4.719,0,8.533-3.814,8.533-8.533C265.079,498.748,261.257,494.933,256.546,494.933z"/>
	<path fill="#333333" d="M307.746,494.933h-17.067c-4.719,0-8.533,3.814-8.533,8.533c0,4.719,3.814,8.533,8.533,8.533h17.067
		c4.719,0,8.533-3.814,8.533-8.533C316.279,498.748,312.457,494.933,307.746,494.933z"/>
	<path fill="#333333" d="M350.421,426.667c0-4.719-3.814-8.533-8.533-8.533h-17.067c-4.719,0-8.533,3.814-8.533,8.533
		s3.814,8.533,8.533,8.533h17.067C346.598,435.2,350.421,431.386,350.421,426.667z"/>
	<path fill="#333333" d="M358.946,494.933h-17.067c-4.719,0-8.533,3.814-8.533,8.533c0,4.719,3.814,8.533,8.533,8.533h17.067
		c4.719,0,8.533-3.814,8.533-8.533C367.479,498.748,363.657,494.933,358.946,494.933z"/>
	<path fill="#333333" d="M179.379,247.27c-19.379-21.888-45.218-33.937-72.772-33.937s-53.393,12.049-72.764,33.937
		c-39.356,44.467-39.356,116.804,0,161.271l72.764,82.202l72.764-82.202C218.735,364.075,218.735,291.738,179.379,247.27z
		 M106.607,366.933c-28.237,0-51.2-22.963-51.2-51.2s22.963-51.2,51.2-51.2s51.2,22.963,51.2,51.2S134.844,366.933,106.607,366.933z
		"/>
	<path fill="#333333" d="M415.974,209.126l55.159-62.174c29.679-33.451,29.679-87.859,0-121.31C456.457,9.105,436.864,0,415.966,0
		c-20.89,0-40.482,9.105-55.159,25.643c-29.67,33.451-29.67,87.859,0,121.31L415.974,209.126z M418.074,34.133
		c25.873,0,46.933,21.06,46.933,46.933S443.947,128,418.074,128c-25.873,0-46.933-21.06-46.933-46.933
		S392.201,34.133,418.074,34.133z"/>
</g>
</svg>
