<?xml version="1.0" encoding="utf-8"?>
<!-- Generator: Adobe Illustrator 17.0.0, SVG Export Plug-In . SVG Version: 6.00 Build 0)  -->
<!DOCTYPE svg PUBLIC "-//W3C//DTD SVG 1.1//EN" "http://www.w3.org/Graphics/SVG/1.1/DTD/svg11.dtd">
<svg version="1.1" id="Capa_1" xmlns="http://www.w3.org/2000/svg" xmlns:xlink="http://www.w3.org/1999/xlink" x="0px" y="0px"
	 width="512px" height="512px" viewBox="0 0 512 512" enable-background="new 0 0 512 512" xml:space="preserve">
<g>
	<path fill="#333333" d="M495.334,204.226c-11.325-12.665-27.228-19.678-44.734-19.734c-0.099,0-0.183,0-0.268,0
		c-35.324,0-55.592,21.466-73.325,45.347c-4.198,5.191-12.325,12.163-22.792,6.248c-6.155-3.465-8.337-11.311-4.902-17.467
		c2.563-4.578,8.394-6.232,12.986-3.634c1.591,0.893,2.748,2.38,3.296,4.154c0.493,1.781,0.282,3.648-0.648,5.246
		c-0.62,1.099-1.633,1.802-2.734,2.147c-0.463-2.464-2.76-4.182-5.253-3.807c-2.577,0.379-4.34,2.773-3.944,5.35
		c0.028,0.261,0.296,0.386,0.352,0.62c-0.296,1.485,0.127,3.028,1.506,3.81c5.79,3.232,13.127,1.184,16.396-4.585
		c1.86-3.289,2.309-7.113,1.295-10.747c-0.972-3.634-3.336-6.648-6.676-8.494c-8.084-4.529-18.311-1.677-22.817,6.389
		c-5.41,9.62-2.001,21.866,7.633,27.291c3.791,2.119,7.661,3.169,11.522,3.169c1.268,0,2.507-0.289,3.745-0.502
		c-3.618,5.07-7.224,10.15-10.971,14.869c-8.297,10.479-15.438,19.227-22.382,25.931c-0.83,0.069-1.605,0.266-2.225,0.858
		c-14.467,13.523-29.523,15.355-42.34,5.156c-9.974-7.971-11.677-22.565-3.733-32.565c6.128-7.668,17.367-8.97,25.058-2.843
		c2.804,2.255,4.605,5.464,4.999,9.07c0.409,3.578-0.606,7.113-2.857,9.947c-1.508,1.957-3.761,3.127-6.199,3.576
		c0.31-0.844,0.534-1.746,0.534-2.704c0-4.224-3.41-7.689-7.689-7.689c-4.24,0-7.661,3.465-7.661,7.689
		c0,1.381,0.435,2.591,1.099,3.717c0.028,1.013,0.379,2.001,1.268,2.676c3.606,2.873,8.098,4.196,12.734,3.634
		c4.578-0.523,8.704-2.79,11.591-6.396c3.423-4.353,5.015-9.762,4.395-15.269c-0.62-5.508-3.326-10.458-7.636-13.888
		c-10.789-8.586-26.606-6.824-35.183,3.993c-10.303,12.965-8.235,31.841,4.506,42.361c-5.646-2.72-10.571-6.678-14.367-11.973
		c-6.232-8.691-8.711-19.678-6.824-30.171c1.471-8.078,5.956-15.098,12.711-19.789c6.734-4.677,14.86-6.479,22.988-5.022
		c1.915,0.289,3.831-0.951,4.171-2.908c0.324-1.966-0.944-3.838-2.903-4.196c-9.928-1.802-20.027,0.4-28.366,6.183
		c-4.643,3.245-8.339,7.485-11.122,12.276v-13.155c14.726-1.628,26.22-14.002,26.22-29.15c0-7.874-3.072-15.276-8.621-20.839
		c-5.57-5.57-12.961-8.626-20.846-8.626c-16.255,0-29.467,13.227-29.467,29.467c0,14.888,11.122,27.085,25.5,29.079v13.099
		c-7.83-13.389-23.337-21.26-39.361-18.318c-1.98,0.345-3.289,2.218-2.931,4.196c0.345,1.945,2.225,3.197,4.196,2.91
		c16.613-3,32.671,8.119,35.685,24.797c1.888,10.523-0.592,21.508-6.81,30.198c-3.803,5.297-8.753,9.255-14.395,11.973
		c12.783-10.52,14.846-29.41,4.499-42.375c-8.607-10.802-24.36-12.593-35.165-3.993c-4.337,3.444-7.048,8.394-7.684,13.888
		c-0.62,5.494,0.923,10.902,4.395,15.255c5.929,7.467,16.868,8.718,24.346,2.773c0.879-0.675,1.21-1.647,1.288-2.69
		c0.62-1.126,1.05-2.339,1.05-3.692c0-4.252-3.417-7.689-7.67-7.689c-4.226,0-7.661,3.437-7.661,7.689
		c0,0.93,0.248,1.832,0.534,2.693c-2.352-0.412-4.599-1.566-6.246-3.578c-2.218-2.834-3.275-6.352-2.824-9.96
		c0.444-3.576,2.177-6.801,5.036-9.042c7.682-6.139,18.917-4.823,25.021,2.834c7.943,9.984,6.303,24.605-3.74,32.579
		c-12.82,10.183-27.832,8.381-42.312-5.184c-0.627-0.562-1.43-0.761-2.198-0.817c-6.923-6.747-14.108-15.494-22.396-25.961
		c-3.766-4.712-7.374-9.796-10.992-14.867c1.24,0.224,2.48,0.5,3.754,0.5c3.831,0,7.71-1.036,11.494-3.169
		c9.634-5.408,13.062-17.656,7.654-27.305c-4.529-8.036-14.783-10.902-22.817-6.375c-3.303,1.846-5.663,4.86-6.676,8.494
		c-1.009,3.634-0.564,7.46,1.302,10.733c1.557,2.794,4.12,4.818,7.24,5.683c3.072,0.872,6.317,0.472,9.128-1.099
		c1.402-0.782,1.776-2.311,1.499-3.782c0.072-0.261,0.317-0.372,0.375-0.648c0.331-2.577-1.43-4.959-3.979-5.35
		c-2.494-0.375-4.774,1.358-5.218,3.824c-1.157-0.375-2.142-1.099-2.762-2.147c-0.895-1.612-1.106-3.479-0.62-5.26
		c0.479-1.777,1.635-3.262,3.275-4.154c4.557-2.556,10.458-0.944,12.979,3.62c3.465,6.169,1.288,14.015-4.902,17.481
		c-10.395,5.838-18.431-0.937-22.644-6.1c-17.74-23.946-38.093-45.481-73.475-45.481c-0.083,0-0.169,0-0.275,0
		c-17.508,0.056-33.388,7.071-44.72,19.734C4.138,218.23-1.763,237.894,0.446,258.213c1.64,15.267,9.169,28.958,21.156,38.593
		c10.312,8.311,22.861,12.676,35.868,12.676c0.451,0,0.895-0.056,1.399-0.056c0.072,0,0.134,0.083,0.22,0.083
		c0.169,0,0.303,0,0.458-0.028c0.217-0.028,0.352-0.086,0.551-0.113c1.24-0.056,2.494-0.056,3.754-0.213
		c25.6-2.773,44.163-25.887,41.389-51.509c-2.262-20.881-20.994-36.037-42.009-33.763c-1.978,0.22-3.41,1.992-3.19,3.965
		c0.231,1.978,1.774,3.437,3.965,3.206c16.847-1.888,32.178,10.43,34.022,27.353c1.416,12.845-3.634,24.818-12.331,33.013
		c3.576-7.506,4.705-16.592,2.711-25.917c-1.654-7.946-6.331-14.746-13.12-19.176c-6.824-4.416-14.931-5.929-22.875-4.24
		c-6.562,1.395-12.19,5.249-15.824,10.874c-3.634,5.614-4.874,12.288-3.479,18.767c1.127,5.41,4.316,10.058,8.929,13.072
		c4.649,3.04,10.169,4.111,15.649,2.928c4.543-0.985,8.436-3.632,10.981-7.534c2.001-3.086,2.618-6.692,2.422-10.296
		c0-0.113,0.086-0.227,0.086-0.368c0-0.197-0.086-0.308-0.113-0.507c-0.062-0.62,0.113-1.21-0.028-1.83
		c-0.062-0.254-0.303-0.338-0.423-0.592c-1.092-2.79-3.824-4.788-6.979-4.846c-4.254-0.056-7.733,3.324-7.791,7.576
		c-0.056,3.761,2.699,6.803,6.276,7.522c-1.487,1.915-3.465,3.296-5.859,3.831c-3.541,0.789-7.175,0.083-10.199-1.885
		c-3.014-1.987-5.105-5.001-5.811-8.51c-0.965-4.647-0.127-9.382,2.466-13.379c2.6-3.995,6.593-6.747,11.267-7.749
		c6.058-1.295,12.246-0.141,17.439,3.232c5.177,3.375,8.725,8.573,10.023,14.612c1.978,9.368,0.451,18.466-4.143,24.975
		c-3.831,5.38-9.831,8.774-17.219,10.044c-12.304,0.62-24.212-3.044-33.911-10.819c-10.502-8.425-17.078-20.384-18.501-33.749
		c-1.978-18.274,3.275-35.898,14.395-48.361c9.937-11.122,23.939-17.284,39.361-17.323c0.086,0,0.169,0,0.252,0
		c31.558,0,50.482,19.634,67.01,41.769c0.035,0.035,0,0.079,0.035,0.12c0.113,0.127,0.254,0.224,0.303,0.359
		c2.986,3.993,5.91,8.036,8.783,12.084c0.761,1.071,1.529,2.049,2.274,3.107c-5.711-1.099-11.508,0.099-16.888,3.676
		c-9.199,6.135-11.712,18.556-5.628,27.742c3.218,4.816,8.543,7.437,13.965,7.437c3.19,0,6.403-0.902,9.262-2.787
		c3.155-2.1,5.288-5.267,6.056-8.987c0.731-3.692,0-7.467-2.105-10.594c-3.676-5.464-11.163-6.958-16.641-3.324
		c-1.113,0.761-1.457,1.999-1.374,3.238c-0.113,0.338-0.451,0.562-0.479,0.93c-0.227,2.591,1.677,4.846,4.289,5.098
		c2.422,0.213,4.451-1.536,4.902-3.916c1.295,0.199,2.535,0.819,3.303,2.001c0.992,1.494,1.388,3.326,0.992,5.128
		c-0.345,1.802-1.43,3.38-2.956,4.393c-4.337,2.931-10.312,1.746-13.213-2.635c-3.907-5.845-2.26-13.819,3.606-17.733
		c10.486-6.916,19.403,0.224,23.754,5.112c0.021,0,0.049,0,0.049,0.014c0.113,0.143,0.227,0.312,0.303,0.426
		c20.409,25.718,37.862,47.917,68.06,43.323c11.945-1.832,22.502-8.337,29.657-18.339c1.295-1.832,2.274-3.861,3.303-5.831v29.548
		c-0.548,0.423-1.14,0.775-1.557,1.395l-8.959,13.268c-0.782,1.11-0.867,2.549-0.234,3.731c0.62,1.17,1.846,1.915,3.19,1.915h3.042
		c0,0.169-0.134,0.326-0.134,0.534c0,4.536,3.71,8.239,8.253,8.239c4.543,0,8.233-3.706,8.233-8.239
		c0-0.211-0.113-0.365-0.113-0.534h3.81c0.099,0,0.155,0,0.197,0c2.008,0,3.609-1.633,3.609-3.606c0-1.127-0.523-2.128-1.325-2.787
		l-8.478-12.51c-0.655-0.928-1.473-1.603-2.325-2.112v-29.058c1.02,2.07,2.105,4.141,3.444,6.056
		c7.155,9.986,17.689,16.523,29.636,18.325c30.016,4.619,47.635-17.605,68.044-43.323c0.143-0.143,0.254-0.298,0.312-0.426
		c0,0,0.028,0,0.028-0.014c4.409-4.888,13.326-12.056,23.775-5.112c5.873,3.914,7.509,11.887,3.606,17.733
		c-2.901,4.381-8.818,5.538-13.227,2.635c-1.534-1.013-2.591-2.563-2.942-4.393c-0.366-1.802,0-3.634,1.002-5.128
		c0.719-1.071,1.788-1.802,3.042-2.056c0.127-0.03,0.183,0.053,0.296,0.053c0.423,2.341,2.477,4.087,4.902,3.916
		c2.605-0.227,4.506-2.507,4.293-5.098c-0.028-0.368-0.365-0.622-0.493-0.958c0.099-1.24-0.252-2.452-1.367-3.213
		c-2.69-1.788-5.873-2.408-9.012-1.788c-3.169,0.634-5.845,2.464-7.622,5.112c-2.098,3.13-2.801,6.891-2.098,10.564
		c0.761,3.692,2.873,6.9,6.028,8.987c2.845,1.888,6.086,2.79,9.297,2.79c5.424,0,10.747-2.621,13.96-7.437
		c6.114-9.199,3.592-21.637-5.637-27.756c-5.394-3.578-11.154-4.774-16.858-3.685c0.761-1.062,1.506-2.026,2.253-3.097
		c2.903-4.078,5.859-8.133,8.846-12.156c0.086-0.104,0.169-0.176,0.282-0.275c0.014-0.028,0-0.056,0.028-0.093
		c16.537-22.149,35.454-41.799,67.019-41.799c0.083,0,0.169,0,0.227,0c15.466,0.044,29.437,6.206,39.368,17.339
		c11.14,12.466,16.41,30.085,14.397,48.361c-1.45,13.34-8.029,25.338-18.466,33.763c-9.69,7.772-21.635,11.436-33.929,10.819
		c-7.439-1.27-13.409-4.663-17.226-10.072c-4.592-6.479-6.114-15.577-4.113-24.959c1.268-6.042,4.846-11.24,10.014-14.612
		c5.17-3.373,11.367-4.529,17.439-3.232c4.647,0.985,8.66,3.724,11.226,7.719c2.607,3.988,3.479,8.746,2.48,13.396
		c-0.733,3.509-2.79,6.549-5.804,8.508c-3.042,1.973-6.678,2.662-10.199,1.885c-2.394-0.507-4.423-1.915-5.859-3.844
		c3.578-0.706,6.313-3.717,6.283-7.506c-0.056-4.254-3.534-7.636-7.788-7.578c-3.227,0.044-5.887,2.029-6.986,4.818
		c-0.13,0.252-0.368,0.338-0.426,0.62c-0.141,0.592,0.044,1.184-0.028,1.802c-0.028,0.197-0.113,0.31-0.113,0.509
		c0,0.141,0.086,0.252,0.086,0.365c-0.199,3.606,0.449,7.21,2.45,10.31c2.538,3.888,6.424,6.535,10.96,7.522
		c5.436,1.14,10.999,0.113,15.618-2.931c4.636-3.016,7.818-7.661,8.945-13.044c1.406-6.535,0.153-13.241-3.493-18.841
		c-3.634-5.598-9.241-9.452-15.804-10.833c-7.946-1.689-16.058-0.176-22.847,4.24c-6.817,4.423-11.466,11.221-13.143,19.176
		c-1.985,9.324-0.886,18.466,2.748,25.975c-1.395-1.268-2.732-2.535-3.928-4.027c-6.606-8.226-9.62-18.538-8.494-29.044
		c1.874-16.923,17.185-29.275,34.059-27.353c2.112,0.234,3.775-1.212,3.944-3.206c0.252-1.973-1.212-3.745-3.199-3.965
		c-20.971-2.366-39.749,12.866-41.986,33.749c-1.367,12.408,2.181,24.607,9.986,34.325c7.83,9.718,18.942,15.834,31.38,17.171
		c1.238,0.143,2.521,0.143,3.761,0.197c0.211,0.044,0.324,0.099,0.548,0.127c0.153,0.03,0.31,0.03,0.449,0.03
		c0.086,0,0.155-0.056,0.227-0.083c0.451,0.028,0.902,0.083,1.395,0.083c13.03,0,25.581-4.409,35.891-12.676
		c11.987-9.634,19.521-23.354,21.156-38.607C513.73,237.873,507.827,218.209,495.334,204.226z M259.511,219.641v-40.918
		c3.07,3.114,6,10.324,6,20.492C265.512,209.211,262.569,216.451,259.511,219.641z M252.301,179.877v38.713
		c-2.753-3.509-5.239-10.085-5.239-19.361S249.546,183.377,252.301,179.877z M278.549,199.229c0,7.319-3.606,13.761-9.072,17.825
		c2.036-4.888,3.245-10.971,3.245-17.825c0-6.852-1.224-12.938-3.245-17.839C274.943,185.44,278.549,191.906,278.549,199.229z
		 M234.025,199.229c0-7.31,3.606-13.738,9.042-17.795c-2.022,4.888-3.231,10.971-3.231,17.795c0,6.84,1.212,12.924,3.262,17.811
		C237.629,212.993,234.025,206.548,234.025,199.229z"/>
</g>
</svg>
