<?xml version="1.0" encoding="utf-8"?>
<!-- Generator: Adobe Illustrator 17.0.0, SVG Export Plug-In . SVG Version: 6.00 Build 0)  -->
<!DOCTYPE svg PUBLIC "-//W3C//DTD SVG 1.1//EN" "http://www.w3.org/Graphics/SVG/1.1/DTD/svg11.dtd">
<svg version="1.1" id="Capa_1" xmlns="http://www.w3.org/2000/svg" xmlns:xlink="http://www.w3.org/1999/xlink" x="0px" y="0px"
	 width="512px" height="512px" viewBox="0 0 512 512" enable-background="new 0 0 512 512" xml:space="preserve">
<path fill="#333333" d="M401.126,45.269l0.418-0.273l-11.29-6.963c-0.666-0.41-1.365-0.751-2.031-1.161
	c-3.703-2.236-7.467-4.378-11.29-6.434c-1.937-1.041-3.9-2.022-5.862-3.012c-2.876-1.459-5.786-2.85-8.721-4.198
	c-1.732-0.794-3.456-1.604-5.197-2.355c-4.565-1.971-9.182-3.823-13.875-5.53c-0.964-0.35-1.946-0.649-2.918-0.99
	c-4.105-1.434-8.26-2.765-12.45-3.994c-1.34-0.393-2.679-0.777-4.028-1.143c-4.642-1.28-9.335-2.449-14.08-3.465
	c-0.452-0.094-0.887-0.213-1.34-0.307c-5.248-1.101-10.556-2.005-15.915-2.773c-1.178-0.171-2.372-0.299-3.55-0.452
	c-4.19-0.538-8.405-0.981-12.655-1.314c-1.434-0.111-2.859-0.239-4.292-0.324C266.735,0.222,261.393,0,256,0
	c-5.828,0-11.588,0.265-17.323,0.649c-1.502,0.102-2.995,0.213-4.497,0.341c-5.385,0.452-10.735,1.033-16.026,1.826
	c-0.529,0.077-1.058,0.145-1.587,0.222c-5.325,0.828-10.581,1.869-15.787,3.021c-1.724,0.375-3.439,0.777-5.154,1.195
	c-4.796,1.161-9.54,2.432-14.225,3.857c-1.485,0.452-2.953,0.947-4.42,1.425c-4.198,1.365-8.354,2.842-12.45,4.42
	c-1.877,0.717-3.755,1.451-5.615,2.219c-4.71,1.937-9.37,3.968-13.935,6.178c-1.502,0.725-2.978,1.536-4.471,2.295
	c-3.567,1.809-7.083,3.695-10.547,5.666c-1.732,0.981-3.456,1.954-5.171,2.978c-4.335,2.603-8.593,5.316-12.757,8.158
	c-0.572,0.393-1.178,0.717-1.741,1.118l-4.651,3.226l0.043,0.188C41.702,95.548,0,170.974,0,256c0,141.158,114.842,256,256,256
	s256-114.842,256-256C512,168.695,468.036,91.494,401.126,45.269z M256,494.933C124.254,494.933,17.067,387.746,17.067,256
	c0-77.457,37.077-146.398,94.387-190.08c1.51,3.388,3.055,6.886,4.659,10.539c16.785,38.272,37.675,85.897,72.602,99.294
	c9.19,3.524,17.766,4.779,26.052,5.973c8.755,1.271,17.024,2.475,25.062,6.417c0.649,0.316,1.988,1.357,2.33,1.783
	c3.046,4.471,3.874,10.65,4.668,16.623c1.101,8.243,2.347,17.587,10.692,21.999c2.714,1.442,5.086,4.343,3.866,7.339
	c-13.252,32.529-2.065,69.897,28.51,95.206c7.834,6.485,11.571,24.252-15.121,72.038c-3.746,6.707-3.669,14.652,0.196,21.248
	c3.917,6.682,11.068,10.82,18.662,10.82c2.475,0,4.949-0.435,7.339-1.28c18.475-6.571,34.185-16.111,52.54-31.906
	c12.672-10.889,20.412-21.973,27.904-32.7c7.561-10.829,14.711-21.06,26.428-29.687c1.707-1.246,2.97-2.944,3.644-4.907
	c0.922-2.697,2.133-5.871,3.465-9.37c8.772-23.006,22.033-57.779-1.485-70.007c-8.457-4.395-14.404-14.524-21.308-26.257
	c-5.376-9.156-11.477-19.533-19.763-28.254c-3.209-3.371-7.731-5.513-13.056-6.204c-7.339-0.939-13.201-3.78-18.884-6.528
	c-6.153-2.978-11.964-5.786-18.765-5.786c-5.427,0-10.462,1.801-15.377,5.495c-5.905,4.454-11.964,1.903-14.148-5.641
	c-1.655-5.726-5.111-12.757-17.169-16.478c-0.529-0.171-0.939-0.538-1.22-1.118c-0.375-0.759-0.418-1.698-0.026-2.773
	c1.493-4.079,1.058-8.115-1.229-11.401c-3.917-5.615-11.375-6.409-16.845-6.451c-0.179-0.717-0.452-1.451-0.87-2.202l-2.517-4.497
	l-7.825,0.171l-2.005,1.186c-2.176,1.263-4.83,0.367-6.98-1.886c-1.801-1.886-2.816-4.412-2.705-6.741
	c0.085-1.954,0.213-3.063,0.324-3.703c2.091-0.614,7.083-1.178,11.93-1.715l5.18-0.589l1.254-0.58
	c13.807-6.409,15.821-3.575,16.99-2.364c1.126,1.161,3.703,5.146,3.371,17.152l-0.213,7.578l7.492,1.109
	c2.193,0.324,4.207,0.478,6.042,0.478c9.02,0,13.764-3.797,16.162-6.997c4.045-5.393,4.617-12.8,1.741-22.639
	c-0.435-1.493-0.051-3.328,0.981-4.668c23.603-30.711,43.409-44.843,81.126-57.882C451.123,97.698,494.933,171.81,494.933,256
	C494.933,387.746,387.746,494.933,256,494.933z"/>
</svg>
